<svg width="310" height="307" viewBox="0 0 310 307" fill="none" xmlns="http://www.w3.org/2000/svg">
<g filter="url(#filter0_d_44_18)">
<path d="M95.4791 69.875C94.202 69.875 93.1666 68.8397 93.1666 67.5625C93.1666 66.2853 94.202 65.25 95.4791 65.25C96.7563 65.25 97.7916 66.2853 97.7916 67.5625C97.7902 68.8391 96.7557 69.8736 95.4791 69.875Z" fill="#FCE0EF"/>
<path d="M103.958 59.0833H82.375C79.8238 59.0908 77.7574 61.1571 77.75 63.7083V77.3675L83.7317 71.3858C85.5624 69.6437 88.4377 69.6437 90.2683 71.3858L94.6951 75.8366L96.0633 74.4684C97.8724 72.6698 100.794 72.6698 102.603 74.4684L108.583 80.4483V63.7083C108.576 61.1571 106.51 59.0908 103.958 59.0833ZM95.4792 69.875C94.202 69.875 93.1667 68.8396 93.1667 67.5625C93.1667 66.2853 94.202 65.25 95.4792 65.25C96.7563 65.25 97.7917 66.2853 97.7917 67.5625C97.7903 68.8391 96.7557 69.8736 95.4792 69.875Z" fill="#F899CC"/>
<path d="M90.2683 71.3858C88.4377 69.6438 85.5623 69.6438 83.7317 71.3858L77.75 77.3675V85.2917C77.7575 87.8429 79.8238 89.9092 82.375 89.9167H103.958C105.215 89.9162 106.417 89.4041 107.288 88.4983L90.2683 71.3858Z" fill="#ED017F"/>
<path d="M108.583 80.4484L102.603 74.4684C100.794 72.6699 97.8724 72.6699 96.0633 74.4684L94.6951 75.8366L107.282 88.4915C108.117 87.6362 108.585 86.4875 108.583 85.2917V80.4484Z" fill="#FCE0EF"/>
<path d="M76.2946 128H81.7066C86.7886 128 90.3966 124.854 90.3966 120.432C90.3966 116.01 86.7886 112.886 81.7066 112.886H76.2946V128ZM79.5286 125.052V115.834H82.1246C85.0066 115.834 87.0526 117.748 87.0526 120.432C87.0526 123.138 85.0066 125.052 82.1246 125.052H79.5286ZM98.179 125.426C96.837 125.426 95.847 124.59 95.473 123.358H103.679C103.679 119.068 101.589 116.362 98.025 116.362C94.703 116.362 92.173 118.848 92.173 122.28C92.173 125.778 94.813 128.264 98.201 128.264C99.873 128.264 101.831 127.56 102.843 126.504L100.797 124.414C100.181 125.008 99.081 125.426 98.179 125.426ZM98.157 119.2C99.455 119.2 100.291 119.926 100.599 121.048H95.517C95.935 119.904 96.947 119.2 98.157 119.2ZM119.382 116.362C117.688 116.362 116.28 117.176 115.686 118.43C114.982 117.154 113.64 116.362 112.078 116.362C110.67 116.362 109.548 117.044 108.998 118.122V116.626H105.786V128H108.998V121.136C108.998 119.926 109.9 119.068 111.198 119.068C112.364 119.068 113.2 119.992 113.2 121.312V128.022H116.28V121.136C116.28 119.926 117.204 119.068 118.48 119.068C119.668 119.068 120.504 119.992 120.504 121.312V128.022H123.584V120.762C123.584 118.188 121.758 116.362 119.382 116.362ZM131.872 128.264C135.238 128.264 138.054 125.536 138.054 122.302C138.054 119.068 135.238 116.362 131.872 116.362C128.484 116.362 125.646 119.068 125.646 122.302C125.646 125.536 128.484 128.264 131.872 128.264ZM131.872 125.558C130.156 125.558 128.726 124.062 128.726 122.302C128.726 120.542 130.156 119.068 131.872 119.068C133.566 119.068 134.996 120.542 134.996 122.302C134.996 124.062 133.566 125.558 131.872 125.558ZM146.805 116.362C145.331 116.362 144.055 117.022 143.373 118.056V116.626H140.161V128H143.373V121.202L143.395 121.268C143.395 120.036 144.429 119.068 145.771 119.068C147.047 119.068 147.927 120.036 147.927 121.444V128H151.029V120.762C151.029 118.188 149.269 116.362 146.805 116.362ZM158.009 128.264C160.803 128.264 162.629 126.834 162.629 124.59C162.629 122.104 160.451 121.444 158.493 120.938C156.953 120.52 156.491 120.344 156.491 119.728C156.491 119.332 157.041 119.046 157.833 119.046C158.801 119.046 159.989 119.42 161.023 120.058L162.321 117.77C161.067 116.934 159.461 116.362 157.833 116.362C155.149 116.362 153.367 117.902 153.389 120.058C153.411 122.302 155.215 122.94 157.547 123.512C158.713 123.82 159.549 124.04 159.549 124.744C159.549 125.25 158.933 125.602 158.075 125.602C156.557 125.602 155.281 125.052 154.269 124.326L152.883 126.548C154.247 127.648 156.183 128.264 158.009 128.264ZM170.768 125.184C170.548 125.404 170.108 125.558 169.668 125.558C169.074 125.558 168.59 125.03 168.59 124.282V119.222H171.054V116.626H168.59V113.502H165.51V116.626H163.948V119.222H165.51V124.788C165.51 126.834 166.918 128.264 168.92 128.264C169.844 128.264 170.878 127.868 171.538 127.274L170.768 125.184ZM176.761 118.738V116.626H173.549V128H176.761V122.566C176.761 120.432 178.279 119.068 180.655 119.068V116.362C178.917 116.362 177.509 117.264 176.761 118.738ZM187.59 116.362C186.006 116.362 184.444 116.802 182.838 117.616L183.916 119.75C184.818 119.288 185.808 118.936 186.864 118.936C188.734 118.936 189.482 119.992 189.482 121.202V121.422C188.514 121.048 187.502 120.85 186.578 120.85C183.938 120.85 181.848 122.39 181.848 124.634C181.848 126.812 183.718 128.264 186.138 128.264C187.37 128.264 188.668 127.78 189.482 126.856V128H192.584V121.202C192.584 118.232 190.56 116.362 187.59 116.362ZM186.864 126.042C185.764 126.042 184.95 125.47 184.95 124.546C184.95 123.622 185.874 122.94 187.04 122.94C187.92 122.94 188.756 123.094 189.482 123.358V124.414C189.262 125.47 188.096 126.042 186.864 126.042ZM201.275 125.184C201.055 125.404 200.615 125.558 200.175 125.558C199.581 125.558 199.097 125.03 199.097 124.282V119.222H201.561V116.626H199.097V113.502H196.017V116.626H194.455V119.222H196.017V124.788C196.017 126.834 197.425 128.264 199.427 128.264C200.351 128.264 201.385 127.868 202.045 127.274L201.275 125.184ZM209.425 125.426C208.083 125.426 207.093 124.59 206.719 123.358H214.925C214.925 119.068 212.835 116.362 209.271 116.362C205.949 116.362 203.419 118.848 203.419 122.28C203.419 125.778 206.059 128.264 209.447 128.264C211.119 128.264 213.077 127.56 214.089 126.504L212.043 124.414C211.427 125.008 210.327 125.426 209.425 125.426ZM209.403 119.2C210.701 119.2 211.537 119.926 211.845 121.048H206.763C207.181 119.904 208.193 119.2 209.403 119.2Z" fill="#363940"/>
<path d="M75.8846 159H79.2026C82.3106 159 84.5226 156.998 84.5226 154.184C84.5226 151.37 82.3106 149.382 79.2026 149.382H75.8846V159ZM77.2986 157.712V150.67H79.2866C81.5126 150.67 83.0666 152.126 83.0666 154.184C83.0666 156.256 81.5126 157.712 79.2866 157.712H77.2986ZM89.6567 157.936C88.4107 157.936 87.5287 157.068 87.3467 155.864H93.0447C93.0447 153.274 91.7707 151.594 89.5587 151.594C87.5567 151.594 85.9467 153.19 85.9467 155.36C85.9467 157.586 87.6547 159.168 89.6707 159.168C90.6927 159.168 91.9527 158.734 92.5967 158.048L91.7287 157.152C91.2947 157.6 90.4127 157.936 89.6567 157.936ZM89.6147 152.826C90.8607 152.826 91.5467 153.638 91.7007 154.758H87.3607C87.5847 153.582 88.4947 152.826 89.6147 152.826ZM102.743 151.594C101.651 151.594 100.727 152.154 100.391 153.05C99.9712 152.154 99.1172 151.594 98.0672 151.594C97.1432 151.594 96.3872 152.056 96.0232 152.77V151.762H94.6372V159H96.0232V154.478C96.0232 153.484 96.7512 152.798 97.7872 152.798C98.6972 152.798 99.3272 153.54 99.3272 154.604V159H100.685V154.478C100.685 153.484 101.413 152.798 102.449 152.798C103.359 152.798 103.989 153.54 103.989 154.604V159H105.347V154.394C105.347 152.756 104.255 151.594 102.743 151.594ZM110.769 159.168C112.827 159.168 114.563 157.432 114.563 155.374C114.563 153.316 112.827 151.594 110.769 151.594C108.697 151.594 106.947 153.316 106.947 155.374C106.947 157.432 108.697 159.168 110.769 159.168ZM110.769 157.964C109.439 157.964 108.333 156.788 108.333 155.374C108.333 153.974 109.439 152.798 110.769 152.798C112.071 152.798 113.177 153.974 113.177 155.374C113.177 156.788 112.071 157.964 110.769 157.964ZM119.866 151.594C118.886 151.594 118.004 152.098 117.57 152.812V151.762H116.184V159H117.57V154.31C117.682 153.456 118.55 152.798 119.558 152.798C120.538 152.798 121.224 153.554 121.224 154.632V159H122.582V154.394C122.582 152.756 121.462 151.594 119.866 151.594ZM127.183 159.168C128.765 159.168 129.927 158.3 129.927 156.928C129.927 155.486 128.653 155.094 127.463 154.744C126.245 154.366 125.797 154.198 125.797 153.638C125.797 153.092 126.357 152.784 127.071 152.784C127.701 152.784 128.429 153.022 129.129 153.456L129.745 152.434C128.961 151.916 128.009 151.594 127.071 151.594C125.531 151.594 124.425 152.462 124.439 153.792C124.439 154.968 125.265 155.444 126.931 155.906C127.827 156.158 128.569 156.368 128.569 157.04C128.569 157.6 128.009 157.978 127.197 157.978C126.343 157.978 125.517 157.656 124.747 157.096L124.089 158.09C124.957 158.79 126.119 159.168 127.183 159.168ZM134.926 157.698C134.772 157.852 134.492 157.964 134.184 157.964C133.778 157.964 133.442 157.6 133.442 157.096V152.938H135.15V151.762H133.442V149.774H132.084V151.762H130.992V152.938H132.084V157.194C132.084 158.356 132.868 159.168 133.988 159.168C134.506 159.168 135.038 158.972 135.43 158.65L134.926 157.698ZM138.299 153.148V151.762H136.913V159H138.299V154.884C138.425 153.624 139.489 152.798 140.987 152.798V151.594C139.741 151.594 138.761 152.196 138.299 153.148ZM145.377 151.594C144.579 151.594 143.669 151.804 142.633 152.322L143.137 153.344C143.767 153.022 144.467 152.742 145.181 152.742C146.623 152.742 147.043 153.708 147.043 154.618V154.842C146.343 154.604 145.573 154.45 144.859 154.45C143.263 154.45 141.961 155.416 141.961 156.858C141.961 158.272 143.095 159.168 144.635 159.168C145.517 159.168 146.511 158.762 147.043 158.006V159H148.401V154.618C148.401 152.826 147.323 151.594 145.377 151.594ZM144.901 158.076C143.991 158.076 143.291 157.6 143.291 156.816C143.291 156.032 144.103 155.486 145.069 155.486C145.783 155.486 146.455 155.584 147.043 155.766V156.732C146.805 157.628 145.797 158.076 144.901 158.076ZM153.793 157.698C153.639 157.852 153.359 157.964 153.051 157.964C152.645 157.964 152.309 157.6 152.309 157.096V152.938H154.017V151.762H152.309V149.774H150.951V151.762H149.859V152.938H150.951V157.194C150.951 158.356 151.735 159.168 152.855 159.168C153.373 159.168 153.905 158.972 154.297 158.65L153.793 157.698ZM156.396 150.558C156.844 150.558 157.222 150.166 157.222 149.718C157.222 149.284 156.844 148.892 156.396 148.892C155.92 148.892 155.556 149.284 155.556 149.718C155.556 150.166 155.92 150.558 156.396 150.558ZM155.696 159H157.082V151.762H155.696V159ZM162.769 151.594C161.789 151.594 160.907 152.098 160.473 152.812V151.762H159.087V159H160.473V154.31C160.585 153.456 161.453 152.798 162.461 152.798C163.441 152.798 164.127 153.554 164.127 154.632V159H165.485V154.394C165.485 152.756 164.365 151.594 162.769 151.594ZM172.97 151.762V152.924C172.424 152.112 171.5 151.594 170.408 151.594C168.504 151.594 167.118 153.008 167.118 155.024C167.118 157.04 168.504 158.468 170.408 158.468C171.5 158.468 172.396 157.978 172.97 157.152V158.202C172.97 159.462 172.032 160.204 170.478 160.204C169.61 160.204 168.742 159.91 168.21 159.406L167.664 160.442C168.35 161.002 169.47 161.408 170.688 161.408C172.83 161.408 174.356 160.092 174.356 158.23V151.762H172.97ZM170.758 157.264C169.47 157.264 168.56 156.34 168.56 155.024C168.56 153.722 169.47 152.798 170.758 152.798C172.046 152.798 172.97 153.722 172.97 155.024C172.97 156.34 172.046 157.264 170.758 157.264ZM183.467 151.594C182.669 151.594 181.759 151.804 180.723 152.322L181.227 153.344C181.857 153.022 182.557 152.742 183.271 152.742C184.713 152.742 185.133 153.708 185.133 154.618V154.842C184.433 154.604 183.663 154.45 182.949 154.45C181.353 154.45 180.051 155.416 180.051 156.858C180.051 158.272 181.185 159.168 182.725 159.168C183.607 159.168 184.601 158.762 185.133 158.006V159H186.491V154.618C186.491 152.826 185.413 151.594 183.467 151.594ZM182.991 158.076C182.081 158.076 181.381 157.6 181.381 156.816C181.381 156.032 182.193 155.486 183.159 155.486C183.873 155.486 184.545 155.584 185.133 155.766V156.732C184.895 157.628 183.887 158.076 182.991 158.076ZM78.2926 183.168C79.8746 183.168 81.0366 182.3 81.0366 180.928C81.0366 179.486 79.7626 179.094 78.5726 178.744C77.3546 178.366 76.9066 178.198 76.9066 177.638C76.9066 177.092 77.4666 176.784 78.1806 176.784C78.8106 176.784 79.5386 177.022 80.2386 177.456L80.8546 176.434C80.0706 175.916 79.1186 175.594 78.1806 175.594C76.6406 175.594 75.5346 176.462 75.5486 177.792C75.5486 178.968 76.3746 179.444 78.0406 179.906C78.9366 180.158 79.6786 180.368 79.6786 181.04C79.6786 181.6 79.1186 181.978 78.3066 181.978C77.4526 181.978 76.6266 181.656 75.8566 181.096L75.1986 182.09C76.0666 182.79 77.2286 183.168 78.2926 183.168ZM86.0353 181.698C85.8813 181.852 85.6013 181.964 85.2933 181.964C84.8873 181.964 84.5513 181.6 84.5513 181.096V176.938H86.2593V175.762H84.5513V173.774H83.1933V175.762H82.1013V176.938H83.1933V181.194C83.1933 182.356 83.9773 183.168 85.0973 183.168C85.6153 183.168 86.1473 182.972 86.5393 182.65L86.0353 181.698ZM89.408 177.148V175.762H88.022V183H89.408V178.884C89.534 177.624 90.598 176.798 92.096 176.798V175.594C90.85 175.594 89.87 176.196 89.408 177.148ZM96.6593 183.168C98.7173 183.168 100.453 181.432 100.453 179.374C100.453 177.316 98.7173 175.594 96.6593 175.594C94.5873 175.594 92.8373 177.316 92.8373 179.374C92.8373 181.432 94.5873 183.168 96.6593 183.168ZM96.6593 181.964C95.3293 181.964 94.2233 180.788 94.2233 179.374C94.2233 177.974 95.3293 176.798 96.6593 176.798C97.9613 176.798 99.0673 177.974 99.0673 179.374C99.0673 180.788 97.9613 181.964 96.6593 181.964ZM105.757 175.594C104.777 175.594 103.895 176.098 103.461 176.812V175.762H102.075V183H103.461V178.31C103.573 177.456 104.441 176.798 105.449 176.798C106.429 176.798 107.115 177.554 107.115 178.632V183H108.473V178.394C108.473 176.756 107.353 175.594 105.757 175.594ZM115.958 175.762V176.924C115.412 176.112 114.488 175.594 113.396 175.594C111.492 175.594 110.106 177.008 110.106 179.024C110.106 181.04 111.492 182.468 113.396 182.468C114.488 182.468 115.384 181.978 115.958 181.152V182.202C115.958 183.462 115.02 184.204 113.466 184.204C112.598 184.204 111.73 183.91 111.198 183.406L110.652 184.442C111.338 185.002 112.458 185.408 113.676 185.408C115.818 185.408 117.344 184.092 117.344 182.23V175.762H115.958ZM113.746 181.264C112.458 181.264 111.548 180.34 111.548 179.024C111.548 177.722 112.458 176.798 113.746 176.798C115.034 176.798 115.958 177.722 115.958 179.024C115.958 180.34 115.034 181.264 113.746 181.264ZM126.007 183H127.421L129.983 175.342L132.517 183H133.931L137.095 173.382H135.527L133.161 180.718L130.753 173.382H129.185L126.777 180.718L124.411 173.382H122.843L126.007 183ZM139.224 174.558C139.672 174.558 140.05 174.166 140.05 173.718C140.05 173.284 139.672 172.892 139.224 172.892C138.748 172.892 138.384 173.284 138.384 173.718C138.384 174.166 138.748 174.558 139.224 174.558ZM138.524 183H139.91V175.762H138.524V183ZM141.915 183H143.287V173.214H141.915V183ZM145.305 183H146.677V173.214H145.305V183ZM156.09 181.698C155.936 181.852 155.656 181.964 155.348 181.964C154.942 181.964 154.606 181.6 154.606 181.096V176.938H156.314V175.762H154.606V173.774H153.248V175.762H152.156V176.938H153.248V181.194C153.248 182.356 154.032 183.168 155.152 183.168C155.67 183.168 156.202 182.972 156.594 182.65L156.09 181.698ZM161.437 183.168C163.495 183.168 165.231 181.432 165.231 179.374C165.231 177.316 163.495 175.594 161.437 175.594C159.365 175.594 157.615 177.316 157.615 179.374C157.615 181.432 159.365 183.168 161.437 183.168ZM161.437 181.964C160.107 181.964 159.001 180.788 159.001 179.374C159.001 177.974 160.107 176.798 161.437 176.798C162.739 176.798 163.845 177.974 163.845 179.374C163.845 180.788 162.739 181.964 161.437 181.964ZM173.448 183H174.862L177.424 175.342L179.958 183H181.372L184.536 173.382H182.968L180.602 180.718L178.194 173.382H176.626L174.218 180.718L171.852 173.382H170.284L173.448 183ZM186.665 174.558C187.113 174.558 187.491 174.166 187.491 173.718C187.491 173.284 187.113 172.892 186.665 172.892C186.189 172.892 185.825 173.284 185.825 173.718C185.825 174.166 186.189 174.558 186.665 174.558ZM185.965 183H187.351V175.762H185.965V183ZM193.038 175.594C192.058 175.594 191.176 176.098 190.742 176.812V175.762H189.356V183H190.742V178.31C190.854 177.456 191.722 176.798 192.73 176.798C193.71 176.798 194.396 177.554 194.396 178.632V183H195.754V178.394C195.754 176.756 194.634 175.594 193.038 175.594ZM202.429 174.558C202.877 174.558 203.255 174.166 203.255 173.718C203.255 173.284 202.877 172.892 202.429 172.892C201.953 172.892 201.589 173.284 201.589 173.718C201.589 174.166 201.953 174.558 202.429 174.558ZM201.729 183H203.115V175.762H201.729V183ZM208.802 175.594C207.822 175.594 206.94 176.098 206.506 176.812V175.762H205.12V183H206.506V178.31C206.618 177.456 207.486 176.798 208.494 176.798C209.474 176.798 210.16 177.554 210.16 178.632V183H211.518V178.394C211.518 176.756 210.398 175.594 208.802 175.594ZM79.0626 205.698C78.9086 205.852 78.6286 205.964 78.3206 205.964C77.9146 205.964 77.5786 205.6 77.5786 205.096V200.938H79.2866V199.762H77.5786V197.774H76.2206V199.762H75.1286V200.938H76.2206V205.194C76.2206 206.356 77.0046 207.168 78.1246 207.168C78.6426 207.168 79.1746 206.972 79.5666 206.65L79.0626 205.698ZM84.6613 199.594C83.6673 199.594 82.7853 200.112 82.3513 200.84V197.214H80.9793V207H82.3513V202.506C82.3513 201.568 83.2613 200.798 84.3533 200.798C85.3333 200.798 86.0193 201.554 86.0193 202.632V207H87.3773V202.394C87.3773 200.756 86.2573 199.594 84.6613 199.594ZM92.6782 205.936C91.4322 205.936 90.5502 205.068 90.3682 203.864H96.0662C96.0662 201.274 94.7922 199.594 92.5802 199.594C90.5782 199.594 88.9682 201.19 88.9682 203.36C88.9682 205.586 90.6762 207.168 92.6922 207.168C93.7142 207.168 94.9742 206.734 95.6182 206.048L94.7502 205.152C94.3162 205.6 93.4342 205.936 92.6782 205.936ZM92.6362 200.826C93.8822 200.826 94.5682 201.638 94.7222 202.758H90.3822C90.6062 201.582 91.5162 200.826 92.6362 200.826ZM109.771 199.594C108.679 199.594 107.755 200.154 107.419 201.05C106.999 200.154 106.145 199.594 105.095 199.594C104.171 199.594 103.415 200.056 103.051 200.77V199.762H101.665V207H103.051V202.478C103.051 201.484 103.779 200.798 104.815 200.798C105.725 200.798 106.355 201.54 106.355 202.604V207H107.713V202.478C107.713 201.484 108.441 200.798 109.477 200.798C110.387 200.798 111.017 201.54 111.017 202.604V207H112.375V202.394C112.375 200.756 111.283 199.594 109.771 199.594ZM117.404 199.594C116.606 199.594 115.696 199.804 114.66 200.322L115.164 201.344C115.794 201.022 116.494 200.742 117.208 200.742C118.65 200.742 119.07 201.708 119.07 202.618V202.842C118.37 202.604 117.6 202.45 116.886 202.45C115.29 202.45 113.988 203.416 113.988 204.858C113.988 206.272 115.122 207.168 116.662 207.168C117.544 207.168 118.538 206.762 119.07 206.006V207H120.428V202.618C120.428 200.826 119.35 199.594 117.404 199.594ZM116.928 206.076C116.018 206.076 115.318 205.6 115.318 204.816C115.318 204.032 116.13 203.486 117.096 203.486C117.81 203.486 118.482 203.584 119.07 203.766V204.732C118.832 205.628 117.824 206.076 116.928 206.076ZM123.888 201.148V199.762H122.502V207H123.888V202.884C124.014 201.624 125.078 200.798 126.576 200.798V199.594C125.33 199.594 124.35 200.196 123.888 201.148ZM134.509 199.762H132.829L129.287 203.458V197.214H127.915V207H129.287V205.138L130.449 203.962L132.717 207H134.369L131.387 203.038L134.509 199.762ZM138.971 205.936C137.725 205.936 136.843 205.068 136.661 203.864H142.359C142.359 201.274 141.085 199.594 138.873 199.594C136.871 199.594 135.261 201.19 135.261 203.36C135.261 205.586 136.969 207.168 138.985 207.168C140.007 207.168 141.267 206.734 141.911 206.048L141.043 205.152C140.609 205.6 139.727 205.936 138.971 205.936ZM138.929 200.826C140.175 200.826 140.861 201.638 141.015 202.758H136.675C136.899 201.582 137.809 200.826 138.929 200.826ZM147.354 205.698C147.2 205.852 146.92 205.964 146.612 205.964C146.206 205.964 145.87 205.6 145.87 205.096V200.938H147.578V199.762H145.87V197.774H144.512V199.762H143.42V200.938H144.512V205.194C144.512 206.356 145.296 207.168 146.416 207.168C146.934 207.168 147.466 206.972 147.858 206.65L147.354 205.698ZM157.294 199.594C156.174 199.594 155.278 200.126 154.718 201.008V199.762H153.346V209.408H154.718V205.74C155.278 206.636 156.174 207.168 157.294 207.168C159.198 207.168 160.626 205.6 160.626 203.374C160.626 201.162 159.198 199.594 157.294 199.594ZM156.958 205.964C155.656 205.964 154.718 204.886 154.718 203.374C154.718 201.862 155.656 200.798 156.958 200.798C158.288 200.798 159.226 201.862 159.226 203.374C159.226 204.886 158.288 205.964 156.958 205.964ZM162.3 207H163.672V197.214H162.3V207ZM168.728 199.594C167.93 199.594 167.02 199.804 165.984 200.322L166.488 201.344C167.118 201.022 167.818 200.742 168.532 200.742C169.974 200.742 170.394 201.708 170.394 202.618V202.842C169.694 202.604 168.924 202.45 168.21 202.45C166.614 202.45 165.312 203.416 165.312 204.858C165.312 206.272 166.446 207.168 167.986 207.168C168.868 207.168 169.862 206.762 170.394 206.006V207H171.752V202.618C171.752 200.826 170.674 199.594 168.728 199.594ZM168.252 206.076C167.342 206.076 166.642 205.6 166.642 204.816C166.642 204.032 167.454 203.486 168.42 203.486C169.134 203.486 169.806 203.584 170.394 203.766V204.732C170.156 205.628 169.148 206.076 168.252 206.076ZM177.173 207.168C178.251 207.168 179.189 206.72 179.889 206.006L178.951 205.152C178.503 205.656 177.859 205.964 177.187 205.964C175.857 205.964 174.765 204.788 174.765 203.374C174.765 201.974 175.857 200.798 177.173 200.798C177.845 200.798 178.475 201.092 178.909 201.582L179.847 200.714C179.161 200.028 178.223 199.594 177.187 199.594C175.115 199.594 173.365 201.316 173.365 203.374C173.365 205.432 175.115 207.168 177.173 207.168ZM184.69 205.936C183.444 205.936 182.562 205.068 182.38 203.864H188.078C188.078 201.274 186.804 199.594 184.592 199.594C182.59 199.594 180.98 201.19 180.98 203.36C180.98 205.586 182.688 207.168 184.704 207.168C185.726 207.168 186.986 206.734 187.63 206.048L186.762 205.152C186.328 205.6 185.446 205.936 184.69 205.936ZM184.648 200.826C185.894 200.826 186.58 201.638 186.734 202.758H182.394C182.618 201.582 183.528 200.826 184.648 200.826Z" fill="#999999"/>
</g>
<defs>
<filter id="filter0_d_44_18" x="-23.3334" y="-24" width="407" height="355" filterUnits="userSpaceOnUse" color-interpolation-filters="sRGB">
<feFlood flood-opacity="0" result="BackgroundImageFix"/>
<feColorMatrix in="SourceAlpha" type="matrix" values="0 0 0 0 0 0 0 0 0 0 0 0 0 0 0 0 0 0 127 0" result="hardAlpha"/>
<feMorphology radius="16" operator="dilate" in="SourceAlpha" result="effect1_dropShadow_44_18"/>
<feOffset dy="18"/>
<feGaussianBlur stdDeviation="29"/>
<feColorMatrix type="matrix" values="0 0 0 0 0 0 0 0 0 0 0 0 0 0 0 0 0 0 0.06 0"/>
<feBlend mode="normal" in2="BackgroundImageFix" result="effect1_dropShadow_44_18"/>
<feBlend mode="normal" in="SourceGraphic" in2="effect1_dropShadow_44_18" result="shape"/>
</filter>
</defs>
</svg>
